<?xml version="1.0" standalone="no"?>
<!DOCTYPE svg PUBLIC "-//W3C//DTD SVG 20010904//EN"
 "http://www.w3.org/TR/2001/REC-SVG-20010904/DTD/svg10.dtd">
<svg version="1.0" xmlns="http://www.w3.org/2000/svg"
 width="64.000000pt" height="64.000000pt" viewBox="0 0 64.000000 64.000000"
 preserveAspectRatio="xMidYMid meet">

<g transform="translate(0.000000,64.000000) scale(0.100000,-0.100000)"
fill="#000000" stroke="none">
<path d="M245 631 c-92 -24 -173 -90 -215 -176 -34 -72 -34 -198 0 -270 31
-64 91 -124 155 -155 72 -34 198 -34 270 0 64 31 124 91 155 155 34 72 34 198
0 270 -31 64 -92 124 -154 153 -53 25 -160 37 -211 23z m209 -45 c87 -43 146
-124 162 -224 l7 -42 -119 -1 c-66 0 -112 -3 -104 -6 47 -17 68 -85 35 -113
-13 -11 -13 -14 0 -27 24 -23 19 -80 -10 -108 -32 -33 -107 -35 -128 -5 l-14
20 -18 -20 c-38 -42 -45 -28 -45 98 0 119 6 143 40 155 8 3 -43 6 -114 6
l-129 1 7 46 c13 99 91 195 190 234 71 28 166 22 240 -14z"/>
<path d="M154 499 c14 -17 26 -35 26 -40 0 -5 9 -9 21 -9 12 0 34 -13 49 -30
15 -16 33 -30 39 -30 6 0 17 -11 23 -25 l11 -25 18 30 c10 16 27 30 36 30 10
0 23 10 28 23 6 12 24 26 43 32 17 5 32 14 32 19 0 5 10 20 22 33 19 20 19 23
4 23 -33 0 -82 -28 -115 -65 -23 -27 -35 -34 -41 -25 -6 9 -9 9 -15 1 -5 -9
-10 -9 -21 0 -11 9 -14 8 -14 -2 0 -7 -14 4 -32 25 -32 39 -80 66 -119 66 -20
0 -20 -1 5 -31z"/>
<path d="M280 247 l0 -47 49 0 c41 0 51 4 56 20 9 28 -2 40 -37 40 -17 0 -40
7 -50 17 -17 15 -18 14 -18 -30z"/>
<path d="M282 134 c3 -38 4 -39 44 -42 69 -5 90 51 22 60 -18 3 -41 8 -51 13
-16 7 -18 3 -15 -31z"/>
</g>
</svg>
